<svg height="5390" width="720" xmlns="http://www.w3.org/2000/svg">
<rect height="5390" fill="#555" width="720"></rect>
<text fill="#7f7" font-family="Courier New" font-size="12" xml:space="preserve">
<tspan x="10" y="26">26 megabytes installed</tspan>
<tspan x="10" y="42"></tspan>
<tspan x="10" y="58">node_modules</tspan>
<tspan x="10" y="74">└─┬ elm-live@2.7.4 </tspan>
<tspan x="10" y="90">  ├─┬ budo@9.4.7 </tspan>
<tspan x="10" y="106">  │ ├─┬ bole@2.0.0 </tspan>
<tspan x="10" y="122">  │ │ ├── core-util-is@1.0.2 </tspan>
<tspan x="10" y="138">  │ │ ├── individual@3.0.0 </tspan>
<tspan x="10" y="154">  │ │ └── json-stringify-safe@5.0.1 </tspan>
<tspan x="10" y="170">  │ ├─┬ browserify@13.3.0 </tspan>
<tspan x="10" y="186">  │ │ ├── assert@1.4.1 </tspan>
<tspan x="10" y="202">  │ │ ├─┬ browser-pack@6.0.2 </tspan>
<tspan x="10" y="218">  │ │ │ ├─┬ combine-source-map@0.7.2 </tspan>
<tspan x="10" y="234">  │ │ │ │ ├── convert-source-map@1.1.3 </tspan>
<tspan x="10" y="250">  │ │ │ │ ├── inline-source-map@0.6.2 </tspan>
<tspan x="10" y="266">  │ │ │ │ ├── lodash.memoize@3.0.4 </tspan>
<tspan x="10" y="282">  │ │ │ │ └── source-map@0.5.6 </tspan>
<tspan x="10" y="298">  │ │ │ └── umd@3.0.1 </tspan>
<tspan x="10" y="314">  │ │ ├─┬ browser-resolve@1.11.2 </tspan>
<tspan x="10" y="330">  │ │ │ └── resolve@1.1.7 </tspan>
<tspan x="10" y="346">  │ │ ├─┬ browserify-zlib@0.1.4 </tspan>
<tspan x="10" y="362">  │ │ │ └── pako@0.2.9 </tspan>
<tspan x="10" y="378">  │ │ ├─┬ buffer@4.9.1 </tspan>
<tspan x="10" y="394">  │ │ │ ├── base64-js@1.2.0 </tspan>
<tspan x="10" y="410">  │ │ │ ├── ieee754@1.1.8 </tspan>
<tspan x="10" y="426">  │ │ │ └── isarray@1.0.0 </tspan>
<tspan x="10" y="442">  │ │ ├── cached-path-relative@1.0.1 </tspan>
<tspan x="10" y="458">  │ │ ├─┬ console-browserify@1.1.0 </tspan>
<tspan x="10" y="474">  │ │ │ └── date-now@0.1.4 </tspan>
<tspan x="10" y="490">  │ │ ├── constants-browserify@1.0.0 </tspan>
<tspan x="10" y="506">  │ │ ├─┬ crypto-browserify@3.11.0 </tspan>
<tspan x="10" y="522">  │ │ │ ├─┬ browserify-cipher@1.0.0 </tspan>
<tspan x="10" y="538">  │ │ │ │ ├─┬ browserify-aes@1.0.6 </tspan>
<tspan x="10" y="554">  │ │ │ │ │ └── buffer-xor@1.0.3 </tspan>
<tspan x="10" y="570">  │ │ │ │ ├─┬ browserify-des@1.0.0 </tspan>
<tspan x="10" y="586">  │ │ │ │ │ └── des.js@1.0.0 </tspan>
<tspan x="10" y="602">  │ │ │ │ └── evp_bytestokey@1.0.0 </tspan>
<tspan x="10" y="618">  │ │ │ ├─┬ browserify-sign@4.0.4 </tspan>
<tspan x="10" y="634">  │ │ │ │ ├── bn.js@4.11.6 </tspan>
<tspan x="10" y="650">  │ │ │ │ ├── browserify-rsa@4.0.1 </tspan>
<tspan x="10" y="666">  │ │ │ │ ├─┬ elliptic@6.4.0 </tspan>
<tspan x="10" y="682">  │ │ │ │ │ ├── brorand@1.1.0 </tspan>
<tspan x="10" y="698">  │ │ │ │ │ ├── hash.js@1.0.3 </tspan>
<tspan x="10" y="714">  │ │ │ │ │ ├── hmac-drbg@1.0.1 </tspan>
<tspan x="10" y="730">  │ │ │ │ │ ├── minimalistic-assert@1.0.0 </tspan>
<tspan x="10" y="746">  │ │ │ │ │ └── minimalistic-crypto-utils@1.0.1 </tspan>
<tspan x="10" y="762">  │ │ │ │ └─┬ parse-asn1@5.1.0 </tspan>
<tspan x="10" y="778">  │ │ │ │   └── asn1.js@4.9.1 </tspan>
<tspan x="10" y="794">  │ │ │ ├── create-ecdh@4.0.0 </tspan>
<tspan x="10" y="810">  │ │ │ ├─┬ create-hash@1.1.2 </tspan>
<tspan x="10" y="826">  │ │ │ │ ├── cipher-base@1.0.3 </tspan>
<tspan x="10" y="842">  │ │ │ │ └── ripemd160@1.0.1 </tspan>
<tspan x="10" y="858">  │ │ │ ├── create-hmac@1.1.4 </tspan>
<tspan x="10" y="874">  │ │ │ ├─┬ diffie-hellman@5.0.2 </tspan>
<tspan x="10" y="890">  │ │ │ │ └── miller-rabin@4.0.0 </tspan>
<tspan x="10" y="906">  │ │ │ ├── pbkdf2@3.0.9 </tspan>
<tspan x="10" y="922">  │ │ │ ├── public-encrypt@4.0.0 </tspan>
<tspan x="10" y="938">  │ │ │ └── randombytes@2.0.3 </tspan>
<tspan x="10" y="954">  │ │ ├── defined@1.0.0 </tspan>
<tspan x="10" y="970">  │ │ ├── deps-sort@2.0.0 </tspan>
<tspan x="10" y="986">  │ │ ├── domain-browser@1.1.7 </tspan>
<tspan x="10" y="1002">  │ │ ├── duplexer2@0.1.4 </tspan>
<tspan x="10" y="1018">  │ │ ├─┬ glob@7.1.1 </tspan>
<tspan x="10" y="1034">  │ │ │ ├── fs.realpath@1.0.0 </tspan>
<tspan x="10" y="1050">  │ │ │ └── inflight@1.0.6 </tspan>
<tspan x="10" y="1066">  │ │ ├─┬ has@1.0.1 </tspan>
<tspan x="10" y="1082">  │ │ │ └── function-bind@1.1.0 </tspan>
<tspan x="10" y="1098">  │ │ ├── htmlescape@1.1.1 </tspan>
<tspan x="10" y="1114">  │ │ ├── https-browserify@0.0.1 </tspan>
<tspan x="10" y="1130">  │ │ ├─┬ insert-module-globals@7.0.1 </tspan>
<tspan x="10" y="1146">  │ │ │ ├── is-buffer@1.1.5 </tspan>
<tspan x="10" y="1162">  │ │ │ └─┬ lexical-scope@1.2.0 </tspan>
<tspan x="10" y="1178">  │ │ │   └── astw@2.2.0 </tspan>
<tspan x="10" y="1194">  │ │ ├─┬ JSONStream@1.3.1 </tspan>
<tspan x="10" y="1210">  │ │ │ ├── jsonparse@1.3.0 </tspan>
<tspan x="10" y="1226">  │ │ │ └── through@2.3.8 </tspan>
<tspan x="10" y="1242">  │ │ ├─┬ labeled-stream-splicer@2.0.0 </tspan>
<tspan x="10" y="1258">  │ │ │ ├── isarray@0.0.1 </tspan>
<tspan x="10" y="1274">  │ │ │ └── stream-splicer@2.0.0 </tspan>
<tspan x="10" y="1290">  │ │ ├─┬ module-deps@4.1.1 </tspan>
<tspan x="10" y="1306">  │ │ │ ├── detective@4.5.0 </tspan>
<tspan x="10" y="1322">  │ │ │ └── stream-combiner2@1.1.1 </tspan>
<tspan x="10" y="1338">  │ │ ├── os-browserify@0.1.2 </tspan>
<tspan x="10" y="1354">  │ │ ├─┬ parents@1.0.1 </tspan>
<tspan x="10" y="1370">  │ │ │ └── path-platform@0.11.15 </tspan>
<tspan x="10" y="1386">  │ │ ├── path-browserify@0.0.0 </tspan>
<tspan x="10" y="1402">  │ │ ├── process@0.11.9 </tspan>
<tspan x="10" y="1418">  │ │ ├── punycode@1.4.1 </tspan>
<tspan x="10" y="1434">  │ │ ├── querystring-es3@0.2.1 </tspan>
<tspan x="10" y="1450">  │ │ ├── read-only-stream@2.0.0 </tspan>
<tspan x="10" y="1466">  │ │ ├─┬ readable-stream@2.2.9 </tspan>
<tspan x="10" y="1482">  │ │ │ ├── buffer-shims@1.0.0 </tspan>
<tspan x="10" y="1498">  │ │ │ ├── process-nextick-args@1.0.7 </tspan>
<tspan x="10" y="1514">  │ │ │ ├── string_decoder@1.0.0 </tspan>
<tspan x="10" y="1530">  │ │ │ └── util-deprecate@1.0.2 </tspan>
<tspan x="10" y="1546">  │ │ ├─┬ shasum@1.0.2 </tspan>
<tspan x="10" y="1562">  │ │ │ ├── json-stable-stringify@0.0.1 </tspan>
<tspan x="10" y="1578">  │ │ │ └── sha.js@2.4.8 </tspan>
<tspan x="10" y="1594">  │ │ ├─┬ shell-quote@1.6.1 </tspan>
<tspan x="10" y="1610">  │ │ │ ├── array-filter@0.0.1 </tspan>
<tspan x="10" y="1626">  │ │ │ ├── array-map@0.0.0 </tspan>
<tspan x="10" y="1642">  │ │ │ ├── array-reduce@0.0.0 </tspan>
<tspan x="10" y="1658">  │ │ │ └── jsonify@0.0.0 </tspan>
<tspan x="10" y="1674">  │ │ ├── stream-browserify@2.0.1 </tspan>
<tspan x="10" y="1690">  │ │ ├─┬ stream-http@2.7.0 </tspan>
<tspan x="10" y="1706">  │ │ │ ├── builtin-status-codes@3.0.0 </tspan>
<tspan x="10" y="1722">  │ │ │ └── to-arraybuffer@1.0.1 </tspan>
<tspan x="10" y="1738">  │ │ ├── string_decoder@0.10.31 </tspan>
<tspan x="10" y="1754">  │ │ ├── subarg@1.0.0 </tspan>
<tspan x="10" y="1770">  │ │ ├─┬ syntax-error@1.3.0 </tspan>
<tspan x="10" y="1786">  │ │ │ └── acorn@4.0.11 </tspan>
<tspan x="10" y="1802">  │ │ ├── through2@2.0.3 </tspan>
<tspan x="10" y="1818">  │ │ ├── timers-browserify@1.4.2 </tspan>
<tspan x="10" y="1834">  │ │ ├── tty-browserify@0.0.0 </tspan>
<tspan x="10" y="1850">  │ │ ├─┬ url@0.11.0 </tspan>
<tspan x="10" y="1866">  │ │ │ ├── punycode@1.3.2 </tspan>
<tspan x="10" y="1882">  │ │ │ └── querystring@0.2.0 </tspan>
<tspan x="10" y="1898">  │ │ ├─┬ util@0.10.3 </tspan>
<tspan x="10" y="1914">  │ │ │ └── inherits@2.0.1 </tspan>
<tspan x="10" y="1930">  │ │ └─┬ vm-browserify@0.0.4 </tspan>
<tspan x="10" y="1946">  │ │   └── indexof@0.0.1 </tspan>
<tspan x="10" y="1962">  │ ├── connect-pushstate@1.1.0 </tspan>
<tspan x="10" y="1978">  │ ├── escape-html@1.0.3 </tspan>
<tspan x="10" y="1994">  │ ├── events@1.1.1 </tspan>
<tspan x="10" y="2010">  │ ├─┬ garnish@5.2.0 </tspan>
<tspan x="10" y="2026">  │ │ ├─┬ chalk@0.5.1 </tspan>
<tspan x="10" y="2042">  │ │ │ ├── ansi-styles@1.1.0 </tspan>
<tspan x="10" y="2058">  │ │ │ ├── has-ansi@0.1.0 </tspan>
<tspan x="10" y="2074">  │ │ │ ├─┬ strip-ansi@0.3.0 </tspan>
<tspan x="10" y="2090">  │ │ │ │ └── ansi-regex@0.2.1 </tspan>
<tspan x="10" y="2106">  │ │ │ └── supports-color@0.2.0 </tspan>
<tspan x="10" y="2122">  │ │ ├─┬ pad-left@2.1.0 </tspan>
<tspan x="10" y="2138">  │ │ │ └── repeat-string@1.6.1 </tspan>
<tspan x="10" y="2154">  │ │ ├── pad-right@0.2.2 </tspan>
<tspan x="10" y="2170">  │ │ ├── prettier-bytes@1.0.3 </tspan>
<tspan x="10" y="2186">  │ │ ├─┬ pretty-ms@2.1.0 </tspan>
<tspan x="10" y="2202">  │ │ │ ├─┬ is-finite@1.0.2 </tspan>
<tspan x="10" y="2218">  │ │ │ │ └── number-is-nan@1.0.1 </tspan>
<tspan x="10" y="2234">  │ │ │ ├── parse-ms@1.0.1 </tspan>
<tspan x="10" y="2250">  │ │ │ └── plur@1.0.0 </tspan>
<tspan x="10" y="2266">  │ │ ├── right-now@1.0.0 </tspan>
<tspan x="10" y="2282">  │ │ └─┬ split2@0.2.1 </tspan>
<tspan x="10" y="2298">  │ │   └─┬ through2@0.6.5 </tspan>
<tspan x="10" y="2314">  │ │     └─┬ readable-stream@1.0.34 </tspan>
<tspan x="10" y="2330">  │ │       └── isarray@0.0.1 </tspan>
<tspan x="10" y="2346">  │ ├─┬ get-ports@1.0.3 </tspan>
<tspan x="10" y="2362">  │ │ └─┬ map-limit@0.0.1 </tspan>
<tspan x="10" y="2378">  │ │   └── once@1.3.3 </tspan>
<tspan x="10" y="2394">  │ ├─┬ http-proxy@1.16.2 </tspan>
<tspan x="10" y="2410">  │ │ ├── eventemitter3@1.2.0 </tspan>
<tspan x="10" y="2426">  │ │ └── requires-port@1.0.0 </tspan>
<tspan x="10" y="2442">  │ ├── inject-lr-script@2.1.0 </tspan>
<tspan x="10" y="2458">  │ ├─┬ internal-ip@1.2.0 </tspan>
<tspan x="10" y="2474">  │ │ └─┬ meow@3.7.0 </tspan>
<tspan x="10" y="2490">  │ │   ├─┬ camelcase-keys@2.1.0 </tspan>
<tspan x="10" y="2506">  │ │   │ └── camelcase@2.1.1 </tspan>
<tspan x="10" y="2522">  │ │   ├── decamelize@1.2.0 </tspan>
<tspan x="10" y="2538">  │ │   ├─┬ loud-rejection@1.6.0 </tspan>
<tspan x="10" y="2554">  │ │   │ ├─┬ currently-unhandled@0.4.1 </tspan>
<tspan x="10" y="2570">  │ │   │ │ └── array-find-index@1.0.2 </tspan>
<tspan x="10" y="2586">  │ │   │ └── signal-exit@3.0.2 </tspan>
<tspan x="10" y="2602">  │ │   ├── map-obj@1.0.1 </tspan>
<tspan x="10" y="2618">  │ │   ├─┬ normalize-package-data@2.3.8 </tspan>
<tspan x="10" y="2634">  │ │   │ ├── hosted-git-info@2.4.2 </tspan>
<tspan x="10" y="2650">  │ │   │ ├─┬ is-builtin-module@1.0.0 </tspan>
<tspan x="10" y="2666">  │ │   │ │ └── builtin-modules@1.1.1 </tspan>
<tspan x="10" y="2682">  │ │   │ ├── semver@5.3.0 </tspan>
<tspan x="10" y="2698">  │ │   │ └─┬ validate-npm-package-license@3.0.1 </tspan>
<tspan x="10" y="2714">  │ │   │   ├─┬ spdx-correct@1.0.2 </tspan>
<tspan x="10" y="2730">  │ │   │   │ └── spdx-license-ids@1.2.2 </tspan>
<tspan x="10" y="2746">  │ │   │   └── spdx-expression-parse@1.0.4 </tspan>
<tspan x="10" y="2762">  │ │   ├─┬ read-pkg-up@1.0.1 </tspan>
<tspan x="10" y="2778">  │ │   │ ├─┬ find-up@1.1.2 </tspan>
<tspan x="10" y="2794">  │ │   │ │ ├── path-exists@2.1.0 </tspan>
<tspan x="10" y="2810">  │ │   │ │ └─┬ pinkie-promise@2.0.1 </tspan>
<tspan x="10" y="2826">  │ │   │ │   └── pinkie@2.0.4 </tspan>
<tspan x="10" y="2842">  │ │   │ └─┬ read-pkg@1.1.0 </tspan>
<tspan x="10" y="2858">  │ │   │   ├─┬ load-json-file@1.1.0 </tspan>
<tspan x="10" y="2874">  │ │   │   │ ├─┬ parse-json@2.2.0 </tspan>
<tspan x="10" y="2890">  │ │   │   │ │ └─┬ error-ex@1.3.1 </tspan>
<tspan x="10" y="2906">  │ │   │   │ │   └── is-arrayish@0.2.1 </tspan>
<tspan x="10" y="2922">  │ │   │   │ ├── pify@2.3.0 </tspan>
<tspan x="10" y="2938">  │ │   │   │ └─┬ strip-bom@2.0.0 </tspan>
<tspan x="10" y="2954">  │ │   │   │   └── is-utf8@0.2.1 </tspan>
<tspan x="10" y="2970">  │ │   │   └── path-type@1.1.0 </tspan>
<tspan x="10" y="2986">  │ │   ├─┬ redent@1.0.0 </tspan>
<tspan x="10" y="3002">  │ │   │ ├─┬ indent-string@2.1.0 </tspan>
<tspan x="10" y="3018">  │ │   │ │ └── repeating@2.0.1 </tspan>
<tspan x="10" y="3034">  │ │   │ └─┬ strip-indent@1.0.1 </tspan>
<tspan x="10" y="3050">  │ │   │   └── get-stdin@4.0.1 </tspan>
<tspan x="10" y="3066">  │ │   └── trim-newlines@1.0.0 </tspan>
<tspan x="10" y="3082">  │ ├─┬ micromatch@2.3.11 </tspan>
<tspan x="10" y="3098">  │ │ ├─┬ arr-diff@2.0.0 </tspan>
<tspan x="10" y="3114">  │ │ │ └── arr-flatten@1.0.3 </tspan>
<tspan x="10" y="3130">  │ │ ├── array-unique@0.2.1 </tspan>
<tspan x="10" y="3146">  │ │ ├─┬ braces@1.8.5 </tspan>
<tspan x="10" y="3162">  │ │ │ ├─┬ expand-range@1.8.2 </tspan>
<tspan x="10" y="3178">  │ │ │ │ └─┬ fill-range@2.2.3 </tspan>
<tspan x="10" y="3194">  │ │ │ │   ├── is-number@2.1.0 </tspan>
<tspan x="10" y="3210">  │ │ │ │   ├── isobject@2.1.0 </tspan>
<tspan x="10" y="3226">  │ │ │ │   └── randomatic@1.1.6 </tspan>
<tspan x="10" y="3242">  │ │ │ ├── preserve@0.2.0 </tspan>
<tspan x="10" y="3258">  │ │ │ └── repeat-element@1.1.2 </tspan>
<tspan x="10" y="3274">  │ │ ├─┬ expand-brackets@0.1.5 </tspan>
<tspan x="10" y="3290">  │ │ │ └── is-posix-bracket@0.1.1 </tspan>
<tspan x="10" y="3306">  │ │ ├── extglob@0.3.2 </tspan>
<tspan x="10" y="3322">  │ │ ├── filename-regex@2.0.0 </tspan>
<tspan x="10" y="3338">  │ │ ├── is-extglob@1.0.0 </tspan>
<tspan x="10" y="3354">  │ │ ├── kind-of@3.1.0 </tspan>
<tspan x="10" y="3370">  │ │ ├─┬ normalize-path@2.1.1 </tspan>
<tspan x="10" y="3386">  │ │ │ └── remove-trailing-separator@1.0.1 </tspan>
<tspan x="10" y="3402">  │ │ ├─┬ object.omit@2.0.1 </tspan>
<tspan x="10" y="3418">  │ │ │ ├─┬ for-own@0.1.5 </tspan>
<tspan x="10" y="3434">  │ │ │ │ └── for-in@1.0.2 </tspan>
<tspan x="10" y="3450">  │ │ │ └── is-extendable@0.1.1 </tspan>
<tspan x="10" y="3466">  │ │ ├─┬ parse-glob@3.0.4 </tspan>
<tspan x="10" y="3482">  │ │ │ ├── glob-base@0.3.0 </tspan>
<tspan x="10" y="3498">  │ │ │ └── is-dotfile@1.0.2 </tspan>
<tspan x="10" y="3514">  │ │ └─┬ regex-cache@0.4.3 </tspan>
<tspan x="10" y="3530">  │ │   ├── is-equal-shallow@0.1.3 </tspan>
<tspan x="10" y="3546">  │ │   └── is-primitive@2.0.0 </tspan>
<tspan x="10" y="3562">  │ ├── minimist@1.2.0 </tspan>
<tspan x="10" y="3578">  │ ├─┬ on-finished@2.3.0 </tspan>
<tspan x="10" y="3594">  │ │ └── ee-first@1.1.1 </tspan>
<tspan x="10" y="3610">  │ ├── on-headers@1.0.1 </tspan>
<tspan x="10" y="3626">  │ ├─┬ once@1.4.0 </tspan>
<tspan x="10" y="3642">  │ │ └── wrappy@1.0.2 </tspan>
<tspan x="10" y="3658">  │ ├─┬ opn@3.0.3 </tspan>
<tspan x="10" y="3674">  │ │ └── object-assign@4.1.1 </tspan>
<tspan x="10" y="3690">  │ ├─┬ pem@1.9.4 </tspan>
<tspan x="10" y="3706">  │ │ └── os-tmpdir@1.0.2 </tspan>
<tspan x="10" y="3722">  │ ├─┬ resolve@1.3.3 </tspan>
<tspan x="10" y="3738">  │ │ └── path-parse@1.0.5 </tspan>
<tspan x="10" y="3754">  │ ├─┬ resp-modifier@6.0.2 </tspan>
<tspan x="10" y="3770">  │ │ ├─┬ debug@2.6.4 </tspan>
<tspan x="10" y="3786">  │ │ │ └── ms@0.7.3 </tspan>
<tspan x="10" y="3802">  │ │ └─┬ minimatch@3.0.3 </tspan>
<tspan x="10" y="3818">  │ │   └─┬ brace-expansion@1.1.7 </tspan>
<tspan x="10" y="3834">  │ │     ├── balanced-match@0.4.2 </tspan>
<tspan x="10" y="3850">  │ │     └── concat-map@0.0.1 </tspan>
<tspan x="10" y="3866">  │ ├─┬ serve-static@1.12.1 </tspan>
<tspan x="10" y="3882">  │ │ ├── encodeurl@1.0.1 </tspan>
<tspan x="10" y="3898">  │ │ ├── parseurl@1.3.1 </tspan>
<tspan x="10" y="3914">  │ │ └─┬ send@0.15.1 </tspan>
<tspan x="10" y="3930">  │ │   ├── debug@2.6.1 </tspan>
<tspan x="10" y="3946">  │ │   ├── depd@1.1.0 </tspan>
<tspan x="10" y="3962">  │ │   ├── destroy@1.0.4 </tspan>
<tspan x="10" y="3978">  │ │   ├── etag@1.8.0 </tspan>
<tspan x="10" y="3994">  │ │   ├── fresh@0.5.0 </tspan>
<tspan x="10" y="4010">  │ │   ├─┬ http-errors@1.6.1 </tspan>
<tspan x="10" y="4026">  │ │   │ └── setprototypeof@1.0.3 </tspan>
<tspan x="10" y="4042">  │ │   ├── mime@1.3.4 </tspan>
<tspan x="10" y="4058">  │ │   ├── ms@0.7.2 </tspan>
<tspan x="10" y="4074">  │ │   ├── range-parser@1.2.0 </tspan>
<tspan x="10" y="4090">  │ │   └── statuses@1.3.1 </tspan>
<tspan x="10" y="4106">  │ ├─┬ simple-html-index@1.5.0 </tspan>
<tspan x="10" y="4122">  │ │ └─┬ from2-string@1.1.0 </tspan>
<tspan x="10" y="4138">  │ │   └── from2@2.3.0 </tspan>
<tspan x="10" y="4154">  │ ├── stacked@1.1.1 </tspan>
<tspan x="10" y="4170">  │ ├── stdout-stream@1.4.0 </tspan>
<tspan x="10" y="4186">  │ ├─┬ strip-ansi@3.0.1 </tspan>
<tspan x="10" y="4202">  │ │ └── ansi-regex@2.1.1 </tspan>
<tspan x="10" y="4218">  │ ├─┬ term-color@1.0.1 </tspan>
<tspan x="10" y="4234">  │ │ ├── ansi-styles@2.0.1 </tspan>
<tspan x="10" y="4250">  │ │ └── supports-color@1.3.1 </tspan>
<tspan x="10" y="4266">  │ ├─┬ tiny-lr@0.2.1 </tspan>
<tspan x="10" y="4282">  │ │ ├─┬ body-parser@1.14.2 </tspan>
<tspan x="10" y="4298">  │ │ │ ├── bytes@2.2.0 </tspan>
<tspan x="10" y="4314">  │ │ │ ├── content-type@1.0.2 </tspan>
<tspan x="10" y="4330">  │ │ │ ├─┬ debug@2.2.0 </tspan>
<tspan x="10" y="4346">  │ │ │ │ └── ms@0.7.1 </tspan>
<tspan x="10" y="4362">  │ │ │ ├── http-errors@1.3.1 </tspan>
<tspan x="10" y="4378">  │ │ │ ├── iconv-lite@0.4.13 </tspan>
<tspan x="10" y="4394">  │ │ │ ├── qs@5.2.0 </tspan>
<tspan x="10" y="4410">  │ │ │ ├─┬ raw-body@2.1.7 </tspan>
<tspan x="10" y="4426">  │ │ │ │ ├── bytes@2.4.0 </tspan>
<tspan x="10" y="4442">  │ │ │ │ └── unpipe@1.0.0 </tspan>
<tspan x="10" y="4458">  │ │ │ └─┬ type-is@1.6.15 </tspan>
<tspan x="10" y="4474">  │ │ │   ├── media-typer@0.3.0 </tspan>
<tspan x="10" y="4490">  │ │ │   └─┬ mime-types@2.1.15 </tspan>
<tspan x="10" y="4506">  │ │ │     └── mime-db@1.27.0 </tspan>
<tspan x="10" y="4522">  │ │ ├─┬ debug@2.2.0 </tspan>
<tspan x="10" y="4538">  │ │ │ └── ms@0.7.1 </tspan>
<tspan x="10" y="4554">  │ │ ├─┬ faye-websocket@0.10.0 </tspan>
<tspan x="10" y="4570">  │ │ │ └─┬ websocket-driver@0.6.5 </tspan>
<tspan x="10" y="4586">  │ │ │   └── websocket-extensions@0.1.1 </tspan>
<tspan x="10" y="4602">  │ │ ├── livereload-js@2.2.2 </tspan>
<tspan x="10" y="4618">  │ │ └── qs@5.1.0 </tspan>
<tspan x="10" y="4634">  │ ├── url-trim@1.0.0 </tspan>
<tspan x="10" y="4650">  │ ├─┬ watchify-middleware@1.6.0 </tspan>
<tspan x="10" y="4666">  │ │ ├─┬ debounce@1.0.0 </tspan>
<tspan x="10" y="4682">  │ │ │ └── date-now@1.0.1 </tspan>
<tspan x="10" y="4698">  │ │ └─┬ watchify@3.9.0 </tspan>
<tspan x="10" y="4714">  │ │   ├─┬ browserify@14.3.0 </tspan>
<tspan x="10" y="4730">  │ │   │ ├── buffer@5.0.6 </tspan>
<tspan x="10" y="4746">  │ │   │ └── https-browserify@1.0.0 </tspan>
<tspan x="10" y="4762">  │ │   └── outpipe@1.1.1 </tspan>
<tspan x="10" y="4778">  │ └── xtend@4.0.1 </tspan>
<tspan x="10" y="4794">  ├─┬ chalk@1.1.3 </tspan>
<tspan x="10" y="4810">  │ ├── ansi-styles@2.2.1 </tspan>
<tspan x="10" y="4826">  │ ├── escape-string-regexp@1.0.5 </tspan>
<tspan x="10" y="4842">  │ ├─┬ has-ansi@2.0.0 </tspan>
<tspan x="10" y="4858">  │ │ └── ansi-regex@2.1.1 </tspan>
<tspan x="10" y="4874">  │ └── supports-color@2.0.0 </tspan>
<tspan x="10" y="4890">  ├─┬ chokidar@1.6.1 </tspan>
<tspan x="10" y="4906">  │ ├─┬ anymatch@1.3.0 </tspan>
<tspan x="10" y="4922">  │ │ └── arrify@1.0.1 </tspan>
<tspan x="10" y="4938">  │ ├── async-each@1.0.1 </tspan>
<tspan x="10" y="4954">  │ ├── glob-parent@2.0.0 </tspan>
<tspan x="10" y="4970">  │ ├── inherits@2.0.3 </tspan>
<tspan x="10" y="4986">  │ ├─┬ is-binary-path@1.0.1 </tspan>
<tspan x="10" y="5002">  │ │ └── binary-extensions@1.8.0 </tspan>
<tspan x="10" y="5018">  │ ├── is-glob@2.0.1 </tspan>
<tspan x="10" y="5034">  │ ├── path-is-absolute@1.0.1 </tspan>
<tspan x="10" y="5050">  │ └─┬ readdirp@2.1.0 </tspan>
<tspan x="10" y="5066">  │   ├── graceful-fs@4.1.11 </tspan>
<tspan x="10" y="5082">  │   └── set-immediate-shim@1.0.1 </tspan>
<tspan x="10" y="5098">  ├─┬ cross-spawn@5.1.0 </tspan>
<tspan x="10" y="5114">  │ ├─┬ lru-cache@4.0.2 </tspan>
<tspan x="10" y="5130">  │ │ ├── pseudomap@1.0.2 </tspan>
<tspan x="10" y="5146">  │ │ └── yallist@2.1.2 </tspan>
<tspan x="10" y="5162">  │ ├─┬ shebang-command@1.2.0 </tspan>
<tspan x="10" y="5178">  │ │ └── shebang-regex@1.0.0 </tspan>
<tspan x="10" y="5194">  │ └─┬ which@1.2.14 </tspan>
<tspan x="10" y="5210">  │   └── isexe@2.0.0 </tspan>
<tspan x="10" y="5226">  ├─┬ hasbin@1.2.3 </tspan>
<tspan x="10" y="5242">  │ └── async@1.5.2 </tspan>
<tspan x="10" y="5258">  ├── indent-string@3.1.0 </tspan>
<tspan x="10" y="5274">  └─┬ q-stream@0.2.0 </tspan>
<tspan x="10" y="5290">    ├─┬ concat-stream@1.5.2 </tspan>
<tspan x="10" y="5306">    │ ├── readable-stream@2.0.6 </tspan>
<tspan x="10" y="5322">    │ └── typedarray@0.0.6 </tspan>
<tspan x="10" y="5338">    ├── q@1.5.0 </tspan>
<tspan x="10" y="5354">    └─┬ readable-stream@1.0.34 </tspan>
<tspan x="10" y="5370">      └── isarray@0.0.1</tspan>
</text>
</svg>
